<svg xmlns="http://www.w3.org/2000/svg" width="334" height="333" viewBox="0 0 334 333">
  <g id="Group_10" data-name="Group 10" transform="translate(-83 -84)">
    <g id="Group_9" data-name="Group 9">
      <path id="Path_28" data-name="Path 28" d="M48.6-98.686A86.569,86.569,0,0,0,61.029-53.424,92.877,92.877,0,0,0,94.42-20.405,88.548,88.548,0,0,0,139.867-8.162q25.228,0,45.633-10.017T217.591-46a73.743,73.743,0,0,0,12.058-40.068H243a84.008,84.008,0,0,1-13.541,46.56q-13.541,20.962-37.1,33.019t-52.5,12.057a101.845,101.845,0,0,1-52.311-14.1A105.3,105.3,0,0,1,49.343-46.56a100.862,100.862,0,0,1-14.1-52.126V-159.53a101.891,101.891,0,0,1,13.912-52.126A104.286,104.286,0,0,1,87-249.683a100.862,100.862,0,0,1,52.125-14.1q28.567,0,52.126,12.058A95.7,95.7,0,0,1,228.536-218.7a83.182,83.182,0,0,1,13.727,46.561H228.907a72.885,72.885,0,0,0-12.243-40.068,80.846,80.846,0,0,0-32.092-27.825q-20.219-10.017-45.447-10.017a87.565,87.565,0,0,0-45.262,12.243,91.855,91.855,0,0,0-33.019,33.019A87.565,87.565,0,0,0,48.6-159.53Z" transform="translate(105 379.108)"/>
      <g id="Group_8" data-name="Group 8" transform="translate(-22 26)">
        <path id="Path_20" data-name="Path 20" d="M101.7,89.692h-.147L96.467,75.768,91.234,61.844H27.63L22.4,75.768,17.312,89.692h-.147s-1.978,4.48-6.207,4.2a4.9,4.9,0,0,1-4.682-4.2L11.72,73.142l5.3-16.549L8.659,17.514A8.757,8.757,0,1,1,17.185,6.369h.127L27.63,52.28h63.6l5.338-23.75L101.12,8.3a8.758,8.758,0,1,1,9.087,9.212l-2.866,13.4-5.493,25.683,5.3,16.549,5.445,16.549a4.9,4.9,0,0,1-4.682,4.2c-.13.009-.257.013-.382.013C103.558,93.9,101.7,89.692,101.7,89.692Z" transform="translate(212.688 181.611)"/>
        <path id="Path_26" data-name="Path 26" d="M91.234,32.058H27.63l-10.613,3.75L8.659,63.718c-4.791.038-7.674,4.529-7.674,7.96,0,3.454,3.277,7.084,8.114,7.084,4.008,0,7.046-4.459,7.918-7.084L27.63,38.888h63.6l10.613,32.789c.24,3.3,3.678,7.084,8.36,7.084a7.079,7.079,0,0,0,7.424-7.084c0-3.372-2.746-7.827-7.424-7.955l-8.36-27.915Z" transform="translate(212.688 201.611)"/>
        <path id="Path_27" data-name="Path 27" d="M-11.068,1.148s19.177-12.89,38.057-12.89S64.452,1.148,64.452,1.148L54,47.741H0Z" transform="translate(245.5 180.37)" fill="#d5dee8"/>
        <rect id="Rectangle_14" data-name="Rectangle 14" width="334" height="333" transform="translate(105 58)" fill="none"/>
      </g>
    </g>
  </g>
</svg>
