<svg xmlns="http://www.w3.org/2000/svg" width="936.494" height="578" viewBox="0 0 936.494 578">
  <g id="Group_13" data-name="Group 13" transform="translate(-130 -308)">
    <g id="Group_14" data-name="Group 14">
      <path id="Path_45" data-name="Path 45" d="M757.757-1547H723.115a123.937,123.937,0,0,0-2.5-24.795,122.4,122.4,0,0,0-7.169-23.094,123.038,123.038,0,0,0-11.344-20.9,123.909,123.909,0,0,0-15.024-18.208,123.939,123.939,0,0,0-18.21-15.023,123.062,123.062,0,0,0-20.9-11.343,122.437,122.437,0,0,0-23.1-7.169,123.97,123.97,0,0,0-24.8-2.5,123.972,123.972,0,0,0-24.8,2.5,122.44,122.44,0,0,0-23.1,7.169,123.071,123.071,0,0,0-20.9,11.343,123.925,123.925,0,0,0-18.21,15.023,123.9,123.9,0,0,0-15.024,18.208,123.038,123.038,0,0,0-11.344,20.9,122.407,122.407,0,0,0-7.169,23.094,123.919,123.919,0,0,0-2.5,24.794H477a36.764,36.764,0,0,1-14.4-2.908,36.878,36.878,0,0,1-11.761-7.929,36.878,36.878,0,0,1-7.929-11.761A36.77,36.77,0,0,1,440-1584l54.28-415a36.77,36.77,0,0,1,2.908-14.4,36.878,36.878,0,0,1,7.929-11.761,36.88,36.88,0,0,1,11.761-7.929,36.772,36.772,0,0,1,14.4-2.907h476.056a36.773,36.773,0,0,1,14.4,2.907,36.884,36.884,0,0,1,11.761,7.929,36.88,36.88,0,0,1,7.93,11.761,36.766,36.766,0,0,1,2.908,14.4v86.5h34.157a152.111,152.111,0,0,1,30.432,3.068,150.235,150.235,0,0,1,28.344,8.8,151.025,151.025,0,0,1,25.65,13.922,152.088,152.088,0,0,1,22.347,18.438,152.091,152.091,0,0,1,18.438,22.348,151.019,151.019,0,0,1,13.922,25.65,150.234,150.234,0,0,1,8.8,28.344,152.111,152.111,0,0,1,3.068,30.432L1189-1584a36.772,36.772,0,0,1-2.907,14.4,36.879,36.879,0,0,1-7.929,11.761,36.878,36.878,0,0,1-11.761,7.929A36.766,36.766,0,0,1,1152-1547H1003.841a123.914,123.914,0,0,0-2.5-24.795,122.383,122.383,0,0,0-7.169-23.094,123.02,123.02,0,0,0-11.344-20.9,123.913,123.913,0,0,0-15.025-18.208,123.932,123.932,0,0,0-18.21-15.023,123.068,123.068,0,0,0-20.9-11.343,122.448,122.448,0,0,0-23.1-7.169,123.972,123.972,0,0,0-24.8-2.5,123.969,123.969,0,0,0-24.8,2.5,122.439,122.439,0,0,0-23.1,7.169,123.074,123.074,0,0,0-20.9,11.343,123.934,123.934,0,0,0-18.21,15.023,123.9,123.9,0,0,0-15.025,18.208,123.025,123.025,0,0,0-11.344,20.9,122.4,122.4,0,0,0-7.169,23.094,123.934,123.934,0,0,0-2.5,24.794Z" transform="translate(-163 2344)" fill="#566d8c"/>
      <ellipse id="Ellipse_10" data-name="Ellipse 10" cx="89.5" cy="89" rx="89.5" ry="89" transform="translate(342 708)" fill="#566d8c"/>
      <ellipse id="Ellipse_9" data-name="Ellipse 9" cx="89.5" cy="89" rx="89.5" ry="89" transform="translate(630 708)" fill="#566d8c"/>
      <rect id="Rectangle_22" data-name="Rectangle 22" width="212" height="71" rx="35.5" transform="translate(204 366)" fill="#fff"/>
      <rect id="Rectangle_23" data-name="Rectangle 23" width="212" height="71" rx="35.5" transform="translate(171 482)" fill="#fff"/>
      <rect id="Rectangle_24" data-name="Rectangle 24" width="212" height="71" rx="35.5" transform="translate(130 598)" fill="#fff"/>
    </g>
  </g>
</svg>
