<svg xmlns="http://www.w3.org/2000/svg" width="413.395" height="395.953" viewBox="0 0 413.395 395.953">
  <path id="Path_44" data-name="Path 44" d="M302.315-1805.51l-27.584-30.759a116.254,116.254,0,0,1-13.445-18.355,121.573,121.573,0,0,1-9.6-20.35,127.344,127.344,0,0,1-5.762-21.681A130.989,130.989,0,0,1,244-1919a131,131,0,0,1,1.921-22.346,127.341,127.341,0,0,1,5.762-21.681,121.611,121.611,0,0,1,9.6-20.35,116.291,116.291,0,0,1,13.445-18.354,108.979,108.979,0,0,1,16.459-14.992,101.1,101.1,0,0,1,18.25-10.709,96.9,96.9,0,0,1,19.443-6.425A95.077,95.077,0,0,1,348.922-2036a95.082,95.082,0,0,1,20.039,2.142,96.932,96.932,0,0,1,19.443,6.425,101.089,101.089,0,0,1,18.249,10.709,108.946,108.946,0,0,1,16.46,14.992l27.584,30.758,27.583-30.758a108.948,108.948,0,0,1,16.46-14.992,101.089,101.089,0,0,1,18.249-10.709,96.933,96.933,0,0,1,19.443-6.425A95.083,95.083,0,0,1,552.473-2036a95.085,95.085,0,0,1,20.04,2.142,96.912,96.912,0,0,1,19.442,6.425,101.1,101.1,0,0,1,18.25,10.709,108.94,108.94,0,0,1,16.459,14.992,116.231,116.231,0,0,1,13.445,18.354,121.537,121.537,0,0,1,9.6,20.35,127.335,127.335,0,0,1,5.762,21.681A131.011,131.011,0,0,1,657.4-1919a131,131,0,0,1-1.921,22.346,127.338,127.338,0,0,1-5.762,21.681,121.5,121.5,0,0,1-9.6,20.35,116.2,116.2,0,0,1-13.445,18.355L599.08-1805.51h0L450.7-1640.047Z" transform="translate(-244 2036)" fill="#566d8c"/>
</svg>
